<svg viewBox="0 0 65 65" xmlns="http://www.w3.org/2000/svg"><g fill="#8DC6D3"><path d="M50.972 60.097c10.203.78 10.203 2.044 0 2.824-10.202.78-26.742.78-36.944 0-10.203-.78-10.203-2.044 0-2.824 10.202-.78 26.742-.78 36.944 0"/><path d="M48.869 42.976c0 9.035-7.331 16.363-16.366 16.363-9.039 0-16.37-7.328-16.37-16.363 0-9.042 7.331-16.368 16.37-16.368 9.035-.001 16.366 7.326 16.366 16.368z"/></g><path fill="#EA1576" d="M48.869 42.976c0 9.035-7.331 16.363-16.366 16.363-9.039 0-16.37-7.328-16.37-16.363"/><path d="M32.502 59.339c8.306 0 15.15-6.195 16.208-14.21H16.29c1.061 8.015 7.906 14.21 16.212 14.21z" fill="#BC0852"/><path fill="#ABD3DD" d="M37.683 30.981V3.021C37.683.544 35.675.5 33.201.5H31.8c-2.474 0-4.481.045-4.481 2.521v24.836l10.364 3.124z"/><g fill="#8DC6D3"><path d="M37.683 30.981V3.021C37.683.544 35.675.5 33.201.5H31.8v30.481h5.883z"/><path d="M37.208 12.744l.476-.477V3.021C37.684.544 35.676.5 33.202.5h-1.401c-2.419 0-4.376.059-4.466 2.372l9.873 9.872z"/></g><path fill="#C4E3E8" d="M39.505 1.619c0 .618-.5 1.12-1.12 1.12H26.618a1.12 1.12 0 0 1-1.12-1.12c0-.619.5-1.119 1.12-1.119h11.768c.619 0 1.119.5 1.119 1.119z"/><path d="M39.505 1.619c0 .618-.5 1.12-1.12 1.12H26.618a1.12 1.12 0 0 1-1.12-1.12" fill="#ABD3DD"/><path fill="#C4E3E8" d="M32.967 7.621a.28.28 0 0 1-.279.28h-3.735a.28.28 0 0 1-.28-.28.28.28 0 0 1 .28-.28h3.735a.28.28 0 0 1 .279.28z"/><g fill="#C4E3E8"><path d="M30.727 9.768c0 .155-.127.28-.281.28h-1.493a.28.28 0 0 1 0-.559h1.493a.28.28 0 0 1 .281.279zm2.24 2.056a.28.28 0 0 1-.279.28h-3.735a.28.28 0 1 1 0-.561h3.735a.28.28 0 0 1 .279.281zm-2.24 2.147a.281.281 0 0 1-.281.281h-1.493a.28.28 0 1 1 0-.56h1.493a.279.279 0 0 1 .281.279zm2.24 2.055a.28.28 0 0 1-.279.28h-3.735a.278.278 0 1 1 0-.558h3.735c.154 0 .279.123.279.278zm-2.24 2.148c0 .154-.127.28-.281.28h-1.493a.28.28 0 0 1 0-.559h1.493a.28.28 0 0 1 .281.279zm2.24 2.055a.277.277 0 0 1-.279.277h-3.735a.278.278 0 0 1-.28-.277c0-.155.126-.282.28-.282h3.735c.154 0 .279.127.279.282zm-2.24 2.148c0 .154-.127.28-.281.28h-1.493a.281.281 0 0 1 0-.562h1.493c.154 0 .281.126.281.282zm2.24 2.054a.281.281 0 0 1-.279.282h-3.735a.28.28 0 1 1 0-.562h3.735a.279.279 0 0 1 .279.28zm-2.24 2.147a.28.28 0 0 1-.281.281h-1.493a.28.28 0 0 1-.28-.281c0-.154.126-.277.28-.277h1.493a.28.28 0 0 1 .281.277zm-3.473 3.302c.74.741-1.106 2.299-3.207 4.402-2.104 2.101-3.662 3.948-4.402 3.208-.742-.743.36-3.048 2.461-5.148 2.1-2.102 4.404-3.204 5.148-2.462z"/></g><path fill="#BC0852" d="M30.274 36.903a2.213 2.213 0 1 1-3.13 3.13 2.213 2.213 0 0 1 3.13-3.13"/><g fill="#BC0852"><path d="M35.081 37.044a.911.911 0 1 1-1.288 1.288.911.911 0 0 1 1.288-1.288m2.857-5.592a1.822 1.822 0 1 1-2.576 2.576 1.822 1.822 0 0 1 2.576-2.576"/></g><path fill="#EA1576" d="M42.551 38.554a1.627 1.627 0 1 1-2.3 2.301 1.627 1.627 0 0 1 2.3-2.3"/><g fill="#EA1576"><path d="M30.563 32.579a.781.781 0 1 1-1.104 1.104.781.781 0 0 1 1.104-1.104m-8.645 8.124a.521.521 0 1 1-.736.736.521.521 0 0 1 .736-.736"/></g><path fill="#2A4451" d="M7.876 61.61a.977.977 0 0 1-1.382 0 .975.975 0 0 1 0-1.381l8.193-8.192a.975.975 0 0 1 1.379 0 .974.974 0 0 1 0 1.381l-8.19 8.192z"/><g fill="#2A4451"><path d="M58.506 60.229a.977.977 0 1 1-1.382 1.381l-8.19-8.193a.975.975 0 1 1 1.379-1.38l8.193 8.192zm-25.029 3.294a.978.978 0 0 1-1.954 0V51.938c0-.541.438-.979.977-.977a.975.975 0 0 1 .977.977v11.585z"/></g><path fill="#405E70" d="M57.04 49.968a3.386 3.386 0 0 1-3.385 3.385H11.346a3.385 3.385 0 0 1 0-6.769h42.309a3.385 3.385 0 0 1 3.385 3.384z"/><path d="M7.961 49.968a3.385 3.385 0 0 1 3.385-3.384h42.309a3.385 3.385 0 0 1 3.385 3.384" fill="#5C7D8E"/></svg>